<svg width="38" height="39" viewBox="0 0 38 39" fill="none" xmlns="http://www.w3.org/2000/svg">
    <rect y="0.5" width="38" height="38" rx="10" fill="#DD8491"/>
    <path d="M27.1782 24.7353L23.972 12.7622C23.8867 12.4449 23.6789 12.1745 23.3942 12.0104C23.1096 11.8462 22.7714 11.8019 22.454 11.8871L20.061 12.5299L19.9835 12.5531C19.8681 12.4017 19.7193 12.2789 19.5487 12.1943C19.3782 12.1097 19.1904 12.0655 19 12.0652H16.5217C16.3037 12.0658 16.0898 12.1246 15.9021 12.2356C15.7145 12.1246 15.5006 12.0658 15.2826 12.0652H12.8043C12.4757 12.0652 12.1605 12.1958 11.9281 12.4282C11.6957 12.6605 11.5652 12.9757 11.5652 13.3044V25.6957C11.5652 26.0243 11.6957 26.3395 11.9281 26.5719C12.1605 26.8042 12.4757 26.9348 12.8043 26.9348H15.2826C15.5006 26.9342 15.7145 26.8754 15.9021 26.7644C16.0898 26.8754 16.3037 26.9342 16.5217 26.9348H19C19.3286 26.9348 19.6438 26.8042 19.8762 26.5719C20.1085 26.3395 20.2391 26.0243 20.2391 25.6957V17.9821L22.3921 26.0132C22.4622 26.2778 22.6181 26.5118 22.8353 26.6785C23.0524 26.8453 23.3187 26.9354 23.5925 26.9348C23.6994 26.9329 23.8058 26.92 23.91 26.8961L26.3031 26.2533C26.6204 26.168 26.8909 25.9602 27.055 25.6755C27.2191 25.3909 27.2634 25.0527 27.1782 24.7353ZM22.7716 13.0875L23.2595 14.8765L20.8664 15.5193L20.3785 13.7303L22.7716 13.0875ZM19 13.3044V22.5978H16.5217V13.3044H19ZM15.2826 13.3044V15.1631H12.8043V13.3044H15.2826ZM19 25.6957H16.5217V23.837H19V25.6957ZM25.9856 25.0529L23.5925 25.6957L23.1046 23.8989L25.5054 23.2561L25.9856 25.0529Z" fill="#FEFEFE"/>
    </svg>
    